<?xml version="1.0" encoding="iso-8859-1"?>
<!-- Generator: Adobe Illustrator 19.0.0, SVG Export Plug-In . SVG Version: 6.00 Build 0)  -->
<svg xmlns="http://www.w3.org/2000/svg" xmlns:xlink="http://www.w3.org/1999/xlink" version="1.1" id="Capa_1" x="0px" y="0px" viewBox="0 0 512 512" style="enable-background:new 0 0 512 512;" xml:space="preserve" width="512px" height="512px">
<g>
	<g>
		<path d="M387.291,98.537l-0.088-0.129c-3.112-4.563-9.333-5.739-13.896-2.629c-4.563,3.111-5.74,9.333-2.629,13.896    c0.006,0.01,0.057,0.085,0.065,0.096l8.285-5.601l-8.262,5.634c1.936,2.839,5.076,4.367,8.271,4.367    c1.94,0,3.901-0.563,5.625-1.738C389.225,109.322,390.402,103.1,387.291,98.537z" fill="#006DF0"/>
	</g>
</g>
<g>
	<g>
		<path d="M474.403,207.037c0.286-2.601,0.43-5.209,0.43-7.808c0-39.659-32.283-71.925-71.963-71.925    c-2.461,0-5.031,0.14-7.639,0.415c-5.493,0.579-9.475,5.501-8.896,10.993c0.579,5.492,5.504,9.464,10.994,8.896    c1.941-0.205,3.753-0.305,5.542-0.305c28.653,0,51.963,23.293,51.963,51.925c0,3.805-0.43,7.649-1.279,11.426    c-1.072,4.773,1.466,9.621,6,11.46c19.71,7.991,32.446,26.881,32.446,48.123c0,28.631-23.311,51.924-51.963,51.924h-14.082V261    H433c5.523,0,10-4.478,10-10c0-5.522-4.477-10-10-10H78.909c-5.523,0-10,4.478-10,10c0,5.522,4.477,10,10,10h7.046v60.442    C48.441,316.331,20,284.365,20,245.748c0-42.135,34.304-76.414,76.469-76.414c1.327,0,2.785,0.047,4.458,0.143    c4.953,0.29,9.366-3.105,10.368-7.965C124.967,95.159,184.142,47,252,47l0.468,0.001c35.953,0.114,70.317,13.574,96.762,37.9    c4.064,3.739,10.39,3.474,14.13-0.589c3.739-4.065,3.475-10.392-0.59-14.13C332.64,42.466,293.49,27.13,252.558,27H252    c-37.892,0-74.836,13.25-104.028,37.31c-26.64,21.957-45.738,51.924-54.378,85.066C41.725,150.9,0,193.546,0,245.748    c0,49.658,37.274,90.605,85.955,95.843V475c0,5.522,4.477,10,10,10H151c5.523,0,10-4.478,10-10c0-5.522-4.477-10-10-10h-45.045    V261h300v204H229c-5.523,0-10,4.478-10,10c0,5.522,4.477,10,10,10h186.955c5.523,0,10-4.478,10-10V342.162h14.082    c39.681,0,71.963-32.265,71.963-71.924C512,243.54,497.48,219.525,474.403,207.037z" fill="#006DF0"/>
	</g>
</g>
<g>
	<g>
		<path d="M197.4,467.93c-1.86-1.861-4.43-2.93-7.07-2.93c-2.63,0-5.21,1.069-7.07,2.93c-1.86,1.861-2.93,4.44-2.93,7.07    s1.07,5.21,2.93,7.069c1.86,1.86,4.44,2.931,7.07,2.931c2.64,0,5.21-1.07,7.07-2.931c1.87-1.859,2.93-4.439,2.93-7.069    S199.27,469.79,197.4,467.93z" fill="#006DF0"/>
	</g>
</g>
<g>
	<g>
		<path d="M352.673,316.021h-65.642c-5.523,0-10,4.478-10,10c0,5.522,4.477,10,10,10h65.642c5.523,0,10-4.478,10-10    C362.673,320.499,358.196,316.021,352.673,316.021z" fill="#006DF0"/>
	</g>
</g>
<g>
	<g>
		<path d="M352.673,404.002c0,0-0.002,0-0.003,0l-65.642,0.019c-5.523,0.002-9.999,4.479-9.997,10.003    c0.002,5.522,4.478,9.997,10,9.997c0,0,0.002,0,0.003,0l65.642-0.019c5.523-0.002,9.999-4.479,9.997-10.003    C362.672,408.477,358.195,404.002,352.673,404.002z" fill="#006DF0"/>
	</g>
</g>
<g>
	<g>
		<path d="M352.673,360.013h-65.642c-5.523,0-10,4.478-10,10c0,5.522,4.477,10,10,10h65.642c5.523,0,10-4.478,10-10    C362.673,364.491,358.196,360.013,352.673,360.013z" fill="#006DF0"/>
	</g>
</g>
<g>
	<g>
		<path d="M239,316.021h-88c-5.523,0-10,4.478-10,10v88c0,5.522,4.477,10,10,10h88c5.523,0,10-4.478,10-10v-88    C249,320.499,244.523,316.021,239,316.021z M229,404.021h-68v-68h68V404.021z" fill="#006DF0"/>
	</g>
</g>
<g>
	<g>
		<path d="M176,153c-16.542,0-30,13.458-30,30s13.458,30,30,30s30-13.458,30-30S192.542,153,176,153z M176,193    c-5.514,0-10-4.486-10-10c0-5.514,4.486-10,10-10c5.514,0,10,4.486,10,10C186,188.514,181.514,193,176,193z" fill="#006DF0"/>
	</g>
</g>
<g>
	<g>
		<path d="M256,153c-16.542,0-30,13.458-30,30s13.458,30,30,30s30-13.458,30-30S272.542,153,256,153z M256,193    c-5.514,0-10-4.486-10-10c0-5.514,4.486-10,10-10c5.514,0,10,4.486,10,10C266,188.514,261.514,193,256,193z" fill="#006DF0"/>
	</g>
</g>
<g>
	<g>
		<path d="M336,153c-16.542,0-30,13.458-30,30s13.458,30,30,30s30-13.458,30-30S352.542,153,336,153z M336,193    c-5.514,0-10-4.486-10-10c0-5.514,4.486-10,10-10c5.514,0,10,4.486,10,10C346,188.514,341.514,193,336,193z" fill="#006DF0"/>
	</g>
</g>
<g>
</g>
<g>
</g>
<g>
</g>
<g>
</g>
<g>
</g>
<g>
</g>
<g>
</g>
<g>
</g>
<g>
</g>
<g>
</g>
<g>
</g>
<g>
</g>
<g>
</g>
<g>
</g>
<g>
</g>
</svg>
