<?xml version="1.0" encoding="utf-8"?>
<!-- Generator: Adobe Illustrator 21.1.0, SVG Export Plug-In . SVG Version: 6.00 Build 0)  -->
<svg version="1.1" id="Layer_1" xmlns="http://www.w3.org/2000/svg" xmlns:xlink="http://www.w3.org/1999/xlink" x="0px" y="0px"
	 viewBox="0 0 167.5 177.1" enable-background="new 0 0 167.5 177.1" xml:space="preserve">
<g>
	<path fill="#3B5FAB" d="M88.5,100.3c-7.3,4.4-14.7,8.6-22,12.9c-7.3,4.2-14.7,8.5-22.2,12.9c-2-1.3-4.1-2.6-6.2-3.8
		c-2.1-1.2-4.3-2.5-6.5-3.8c5.1-3.1,10.2-6.1,15.4-9.1s10.3-6,15.4-9.1c-2.9-1.9-5.9-3.6-8.9-5.3c-3-1.6-6-3.3-8.9-4.9
		C39.3,93,34,96,28.8,99c-5.2,3.1-10.5,6.1-15.8,9.2v35.9c5.3,3.1,10.6,6.1,15.8,9.1s10.3,6,15.4,9.1c5.3-3.1,10.5-6.1,15.6-9.1
		s10.3-6,15.6-9.1l13,7.6c-7.3,4.3-14.7,8.6-22,12.8s-14.7,8.4-22.2,12.6c-7.3-4.2-14.7-8.4-22-12.7S7.5,155.9,0,151.7v-51.1
		c6.2-3.6,12.6-7.3,19.1-11.1c6.5-3.7,13-7.4,19.3-11.1c0.9-0.6,1.8-1.1,2.7-1.8c0.9-0.6,1.8-1.1,2.7-1.5c0.6-0.2,1.1-0.1,1.8,0.3
		c0.6,0.4,1.3,0.7,2.2,1.1c6.8,4,13.6,8,20.5,11.9C75.3,92.5,82,96.4,88.5,100.3z"/>
	<path fill="#3B5FAB" d="M99.3,0c2.2,1.3,4.4,2.5,6.5,3.7c2.2,1.2,4.3,2.5,6.5,3.9v138.1l-13,7.6V9.1V0z"/>
	<path fill="#3B5FAB" d="M126.8,0c2.2,1.3,4.3,2.5,6.5,3.7s4.4,2.5,6.5,3.9v138.1l-13,7.6V9.1V0z"/>
	<path fill="#3B5FAB" d="M154.2,100.2c2.2,1.3,11,6.2,13.2,7.7V144l-13.2,7.7V100.2z"/>
	<path fill="#3B5FAB" d="M167.5,101.4l-13.2-7.7v-5.1c2.2-1.5,11-6.4,13.2-7.7V101.4z"/>
</g>
</svg>
