<?xml version="1.0" encoding="utf-8"?>
<!-- Generator: Adobe Illustrator 21.1.0, SVG Export Plug-In . SVG Version: 6.00 Build 0)  -->
<svg version="1.1" id="Layer_1" xmlns="http://www.w3.org/2000/svg" xmlns:xlink="http://www.w3.org/1999/xlink" x="0px" y="0px"
	 viewBox="0 0 265.1 280.5" style="enable-background:new 0 0 265.1 280.5;" xml:space="preserve">
<g>
	<path style="fill:#1CC3F2;" d="M49.9,187.6c3.4,2,6.9,4.1,10.2,6c3.4,2,6.7,4,9.9,6c11.9-6.9,23.6-13.7,35.2-20.4
		s23.2-13.5,34.8-20.4c-10.3-6.1-21-12.3-31.9-18.5s-21.7-12.5-32.4-18.9c-1.4-0.6-2.6-1.2-3.5-1.8c-1-0.6-1.9-0.7-2.8-0.5
		c-1.4,0.6-2.8,1.4-4.3,2.4s-2.9,1.9-4.3,2.8c-10.1,5.7-20.3,11.6-30.6,17.5S9.8,153.6,0,159.3v81c11.9,6.6,23.6,13.3,35.2,20.1
		s23.2,13.5,34.8,20.1c11.9-6.6,23.6-13.3,35.2-19.9s23.2-13.4,34.8-20.3l-20.7-12.1c-8.4,4.9-16.7,9.6-24.7,14.4
		c-8,4.7-16.3,9.5-24.7,14.4c-8-4.9-16.2-9.6-24.4-14.4c-8.2-4.7-16.6-9.5-25-14.4v-56.8c8.4-4.8,16.7-9.7,25-14.5
		c8.2-4.8,16.6-9.6,25-14.2c4.6,2.6,9.3,5.1,14.1,7.8c4.8,2.6,9.5,5.4,14.1,8.3c-8,4.9-16.2,9.6-24.4,14.4
		C66.1,177.9,57.9,182.7,49.9,187.6z"/>
	<path style="fill:#1CC3F2;" d="M157.1,0v14.4v228.5l20.7-12.1V12.1c-3.4-2.3-6.9-4.4-10.3-6.2C164,4,160.5,2,157.1,0z"/>
	<path style="fill:#1CC3F2;" d="M200.7,0v14.4v228.5l20.7-12.1V12.1c-3.4-2.3-6.9-4.4-10.3-6.2C207.6,4,204.2,2,200.7,0z"/>
	<path style="fill:#1CC3F2;" d="M244.1,240.4l21-12.2V171c-3.5-2.3-17.5-10.2-21-12.2V240.4z"/>
	<path style="fill:#1CC3F2;" d="M244.1,148.4l21,12.2v-32.5c-3.5,2.1-17.5,9.9-21,12.2V148.4z"/>
</g>
</svg>
