<?xml version="1.0" encoding="utf-8"?>
<!-- Generator: Adobe Illustrator 21.1.0, SVG Export Plug-In . SVG Version: 6.00 Build 0)  -->
<svg version="1.1" id="Layer_1" xmlns="http://www.w3.org/2000/svg" xmlns:xlink="http://www.w3.org/1999/xlink" x="0px" y="0px"
	 viewBox="0 0 551.3 280.6" style="enable-background:new 0 0 551.3 280.6;" xml:space="preserve">
<g>
	<path style="fill:#1CC3F2;" d="M49.9,187.6c3.4,2,6.9,4.1,10.2,6c3.4,2,6.7,4,9.9,6c11.9-6.9,23.6-13.7,35.2-20.4
		c11.6-6.7,23.2-13.5,34.8-20.4c-10.3-6.1-21-12.3-31.9-18.5c-10.9-6.2-21.7-12.5-32.4-18.9c-1.4-0.6-2.6-1.2-3.5-1.8
		c-1-0.6-1.9-0.7-2.8-0.5c-1.4,0.6-2.8,1.4-4.3,2.4c-1.5,1-2.9,1.9-4.3,2.8c-10.1,5.7-20.3,11.6-30.6,17.5S9.8,153.6,0,159.3v81
		c11.9,6.6,23.6,13.3,35.2,20.1c11.6,6.8,23.2,13.5,34.8,20.1c11.9-6.6,23.6-13.3,35.2-19.9c11.6-6.6,23.2-13.4,34.8-20.3
		l-20.7-12.1c-8.4,4.9-16.7,9.6-24.7,14.4c-8,4.7-16.3,9.5-24.7,14.4c-8-4.9-16.2-9.6-24.4-14.4c-8.2-4.7-16.6-9.5-25-14.4v-56.8
		c8.4-4.8,16.7-9.7,25-14.5c8.2-4.8,16.6-9.6,25-14.2c4.6,2.6,9.3,5.1,14.1,7.8c4.8,2.6,9.5,5.4,14.1,8.3c-8,4.9-16.2,9.6-24.4,14.4
		C66.1,177.9,57.9,182.7,49.9,187.6z"/>
	<path style="fill:#1CC3F2;" d="M506.9,158.9c-10.3-6.1-21-12.3-31.9-18.5s-21.7-12.5-32.4-18.9c-1.4-0.6-2.6-1.2-3.5-1.8
		c-1-0.6-1.9-0.7-2.8-0.5c-1.4,0.6-2.8,1.4-4.3,2.4s-2.9,1.9-4.3,2.8c-10.1,5.7-20.3,11.6-30.6,17.5c-10.3,5.9-20.4,11.8-30.2,17.5
		v81c11.9,6.6,23.6,13.3,35.2,20.1c11.6,6.8,23.2,13.5,34.8,20.1c11.9-6.6,23.6-13.3,35.2-19.9c11.6-6.6,2.4-1.2,14-8.1l-20.7-12.1
		c-8.4,4.9,4.2-2.6-3.9,2.2c-8,4.7-16.3,9.5-24.7,14.4c-8-4.9-16.2-9.6-24.4-14.4c-8.2-4.7-16.6-9.5-25-14.4v-56.8
		c8.4-4.8,16.7-9.7,25-14.5c8.2-4.8,16.6-9.6,25-14.2c4.6,2.6,9.3,5.1,14.1,7.8c4.8,2.6,14.1,8.3,14.1,8.3s17.3,9.7,20.7,11.9v109.3
		L507,268V159.3c-0.1-0.1-0.3-0.2-0.4-0.3C506.7,159,506.8,158.9,506.9,158.9z"/>
	<path style="fill:#1CC3F2;" d="M157.1,0v14.4v228.5l20.7-12.1V12.1c-3.4-2.3-6.9-4.4-10.3-6.2C164,4,160.5,2,157.1,0z"/>
	<path style="fill:#1CC3F2;" d="M200.7,0v14.4v228.5l20.7-12.1V12.1c-3.4-2.3-6.9-4.4-10.3-6.2C207.6,4,204.2,2,200.7,0z"/>
	<path style="fill:#1CC3F2;" d="M244.1,240.4l21-12.2V171c-3.5-2.3-17.5-10.2-21-12.2V240.4z"/>
	<polygon style="fill:#1CC3F2;" points="288.1,209.4 331.4,209.4 345.3,188.4 288.1,188.4 	"/>
	<path style="fill:#1CC3F2;" d="M244.1,148.4l21,12.2v-32.5c-3.5,2.1-17.5,9.9-21,12.2V148.4z"/>
	<path style="fill:#1CC3F2;" d="M530.3,240.4l21-12.2V171c-3.5-2.3-17.5-10.2-21-12.2V240.4z"/>
	<path style="fill:#1CC3F2;" d="M530.3,140.4v8.1l21,12.2v-32.5C547.8,130.2,533.8,138.1,530.3,140.4z"/>
</g>
</svg>
