<?xml version="1.0" encoding="iso-8859-1"?>
<!-- Generator: Adobe Illustrator 19.0.0, SVG Export Plug-In . SVG Version: 6.00 Build 0)  -->
<svg xmlns="http://www.w3.org/2000/svg" xmlns:xlink="http://www.w3.org/1999/xlink" version="1.1" id="Capa_1" x="0px" y="0px" viewBox="0 0 512.001 512.001" style="enable-background:new 0 0 512.001 512.001;" xml:space="preserve" width="512px" height="512px">
<g>
	<g>
		<path d="M437.997,364.004c-16.802,0-32.304,5.638-44.74,15.108l-72.646-72.646c9.176-11.766,14.898-25.752,16.728-40.341h43.247    c4.281,13.882,17.229,24,32.496,24c18.748,0,33.999-15.252,33.999-33.999s-15.252-33.999-33.999-33.999    c-15.268,0-28.216,10.118-32.496,23.999h-43.194c-0.471-3.929-1.22-7.848-2.276-11.727c-1.45-5.33-6.948-8.475-12.275-7.023    c-5.329,1.45-8.473,6.946-7.023,12.275c5.833,21.437-0.289,44.499-15.979,60.187c-24.172,24.174-63.507,24.174-87.679,0    c-24.173-24.172-24.173-63.506,0-87.679c15.288-15.289,36.999-21.461,58.08-16.512c5.374,1.258,10.759-2.073,12.021-7.45    c1.262-5.376-2.073-10.758-7.45-12.021c-24.578-5.77-49.808-0.094-69.294,15.198l-72.63-72.63    c9.472-12.436,15.112-27.941,15.112-44.744C147.998,33.195,114.802,0,73.999,0S0.001,33.195,0.001,73.998    s33.195,73.998,73.998,73.998c16.804,0,32.308-5.64,44.745-15.112l72.648,72.648c-23.109,29.543-23.109,71.383,0,100.928    l-37.305,37.305c-3.905,3.905-3.905,10.237,0,14.143c1.953,1.953,4.512,2.929,7.071,2.929s5.119-0.976,7.071-2.929l37.305-37.305    c14.772,11.554,32.611,17.354,50.464,17.354s35.692-5.8,50.464-17.354l72.649,72.649c-9.475,12.437-15.116,27.943-15.116,44.749    c0,40.803,33.195,73.998,73.998,73.998s73.998-33.195,73.998-73.998S478.8,364.004,437.997,364.004z M413.082,242.125    c7.72,0,14,6.28,14,14c0,7.72-6.28,14-14,14s-14-6.28-14-14C399.082,248.405,405.362,242.125,413.082,242.125z M74,127.998    c-29.775,0-53.999-24.223-53.999-53.999S44.225,20.001,74,20.001c29.775,0,53.999,24.223,53.999,53.999    S103.776,127.998,74,127.998z M437.997,492.001c-29.775,0-53.999-24.223-53.999-53.999c0-14.435,5.704-27.554,14.963-37.252    c0.331-0.257,0.655-0.529,0.959-0.833c0.304-0.304,0.575-0.627,0.832-0.957c9.697-9.255,22.814-14.957,37.245-14.957    c29.775,0,53.999,24.223,53.999,53.999S467.772,492.001,437.997,492.001z" fill="#006DF0"/>
	</g>
</g>
<g>
	<g>
		<path d="M80.004,373.995c-31.98,0-57.999,26.018-57.999,57.999s26.018,57.999,57.999,57.999c31.98,0,57.999-26.018,57.999-57.999    S111.985,373.995,80.004,373.995z M80.004,469.993c-20.953,0-37.999-17.047-37.999-37.999s17.047-37.999,37.999-37.999    c20.953,0,37.999,17.047,37.999,37.999S100.957,469.993,80.004,469.993z" fill="#006DF0"/>
	</g>
</g>
<g>
	<g>
		<path d="M314.341,198.377l-0.359-0.362c-3.905-3.905-10.237-3.905-14.143,0c-3.905,3.905-3.905,10.237,0,14.143l0.259,0.261    c1.957,1.985,4.538,2.979,7.122,2.979c2.535,0,5.072-0.958,7.021-2.879C318.174,208.642,318.219,202.31,314.341,198.377z" fill="#006DF0"/>
	</g>
</g>
<g>
	<g>
		<path d="M145.573,366.425c-1.86-1.86-4.44-2.92-7.07-2.92c-2.64,0-5.21,1.06-7.08,2.92c-1.86,1.86-2.92,4.44-2.92,7.07    c0,2.64,1.06,5.21,2.92,7.08c1.87,1.86,4.44,2.92,7.08,2.92c2.63,0,5.21-1.06,7.07-2.92c1.86-1.87,2.93-4.44,2.93-7.08    C148.503,370.865,147.433,368.285,145.573,366.425z" fill="#006DF0"/>
	</g>
</g>
<g>
	<g>
		<path d="M454.001,0.007c-31.98,0-57.999,26.018-57.999,57.999c0,12.384,3.914,23.863,10.552,33.295l-78.626,78.626    c-3.905,3.905-3.905,10.237,0,14.143c1.952,1.953,4.512,2.929,7.071,2.929c2.559,0,5.119-0.976,7.071-2.929l78.625-78.625    c9.433,6.643,20.918,10.56,33.306,10.56c31.98,0,57.999-26.018,57.999-57.999C512,26.025,485.982,0.007,454.001,0.007z     M454.001,96.006c-20.953,0-37.999-17.047-37.999-37.999c0-20.953,17.047-37.999,37.999-37.999    c20.953,0,37.999,17.047,37.999,37.999C492,78.959,474.954,96.006,454.001,96.006z" fill="#006DF0"/>
	</g>
</g>
<g>
	<g>
		<path d="M256.001,225.998c-16.542,0-29.999,13.458-29.999,29.999s13.458,29.999,29.999,29.999S286,272.539,286,255.998    S272.542,225.998,256.001,225.998z M256.001,265.997c-5.514,0-10-4.486-10-10s4.486-10,10-10s10,4.486,10,10    S261.514,265.997,256.001,265.997z" fill="#006DF0"/>
	</g>
</g>
<g>
</g>
<g>
</g>
<g>
</g>
<g>
</g>
<g>
</g>
<g>
</g>
<g>
</g>
<g>
</g>
<g>
</g>
<g>
</g>
<g>
</g>
<g>
</g>
<g>
</g>
<g>
</g>
<g>
</g>
</svg>
