<?xml version="1.0" encoding="UTF-8"?><!DOCTYPE svg PUBLIC "-//W3C//DTD SVG 1.1//EN" "http://www.w3.org/Graphics/SVG/1.1/DTD/svg11.dtd"><svg xmlns="http://www.w3.org/2000/svg"><symbol id="icon-checked" viewBox="0 0 26 20">
    <path d="M.3 11c-.2-.2-.3-.5-.3-.7s.1-.5.3-.7l1.4-1.4c.4-.4 1-.4 1.4 0l.1.1 5.5 5.9c.2.2.5.2.7 0L22.8.3h.1c.4-.4 1-.4 1.4 0l1.4 1.4c.4.4.4 1 0 1.4l-16 16.6c-.2.2-.4.3-.7.3s-.5-.1-.7-.3L.5 11.3.3 11z"/>
</symbol><symbol id="icon-down" viewBox="0 0 408 408">
    <path d="M204 408l204-204-35.7-35.7-142.8 142.8V0h-51v311.1L35.7 168.3 0 204z"/>
</symbol><symbol id="icon-logo" viewBox="0 0 167.5 177.1">
    <g>
        <path d="M88.5 100.3c-7.3 4.4-14.7 8.6-22 12.9-7.3 4.2-14.7 8.5-22.2 12.9-2-1.3-4.1-2.6-6.2-3.8-2.1-1.2-4.3-2.5-6.5-3.8 5.1-3.1 10.2-6.1 15.4-9.1s10.3-6 15.4-9.1c-2.9-1.9-5.9-3.6-8.9-5.3-3-1.6-6-3.3-8.9-4.9C39.3 93 34 96 28.8 99c-5.2 3.1-10.5 6.1-15.8 9.2v35.9c5.3 3.1 10.6 6.1 15.8 9.1s10.3 6 15.4 9.1c5.3-3.1 10.5-6.1 15.6-9.1s10.3-6 15.6-9.1l13 7.6c-7.3 4.3-14.7 8.6-22 12.8s-14.7 8.4-22.2 12.6c-7.3-4.2-14.7-8.4-22-12.7S7.5 155.9 0 151.7v-51.1c6.2-3.6 12.6-7.3 19.1-11.1 6.5-3.7 13-7.4 19.3-11.1.9-.6 1.8-1.1 2.7-1.8.9-.6 1.8-1.1 2.7-1.5.6-.2 1.1-.1 1.8.3.6.4 1.3.7 2.2 1.1 6.8 4 13.6 8 20.5 11.9 7 4.1 13.7 8 20.2 11.9z"/>
        <path d="M99.3 0c2.2 1.3 4.4 2.5 6.5 3.7 2.2 1.2 4.3 2.5 6.5 3.9v138.1l-13 7.6V0z"/>
        <path d="M126.8 0c2.2 1.3 4.3 2.5 6.5 3.7s4.4 2.5 6.5 3.9v138.1l-13 7.6V0z"/>
        <path d="M154.2 100.2c2.2 1.3 11 6.2 13.2 7.7V144l-13.2 7.7v-51.5z"/>
        <path d="M167.5 101.4l-13.2-7.7v-5.1c2.2-1.5 11-6.4 13.2-7.7v20.5z"/>
    </g>
</symbol><symbol id="icon-next" viewBox="0 0 408 408">
    <path d="M204 0l-35.7 35.7 142.8 142.8H0v51h311.1L168.3 372.3 204 408l204-204z"/>
</symbol><symbol id="icon-up" viewBox="0 0 408 408">
    <path d="M0 204l35.7 35.7L178.5 96.9V408h51V96.9l142.8 142.8L408 204 204 0z"/>
</symbol></svg>