<?xml version="1.0" encoding="UTF-8"?><!DOCTYPE svg PUBLIC "-//W3C//DTD SVG 1.1//EN" "http://www.w3.org/Graphics/SVG/1.1/DTD/svg11.dtd"><svg xmlns="http://www.w3.org/2000/svg"><symbol id="icon-checked" viewBox="0 0 26 20">
    <path d="M.3 11c-.2-.2-.3-.5-.3-.7s.1-.5.3-.7l1.4-1.4c.4-.4 1-.4 1.4 0l.1.1 5.5 5.9c.2.2.5.2.7 0L22.8.3h.1c.4-.4 1-.4 1.4 0l1.4 1.4c.4.4.4 1 0 1.4l-16 16.6c-.2.2-.4.3-.7.3s-.5-.1-.7-.3L.5 11.3.3 11z"/>
</symbol><symbol id="icon-down" viewBox="0 0 408 408">
    <path d="M204 408l204-204-35.7-35.7-142.8 142.8V0h-51v311.1L35.7 168.3 0 204z"/>
</symbol><symbol id="icon-logo" viewBox="0 0 551.3 280.6">
    <g>
        <path d="M49.9 187.6c3.4 2 6.9 4.1 10.2 6 3.4 2 6.7 4 9.9 6 11.9-6.9 23.6-13.7 35.2-20.4 11.6-6.7 23.2-13.5 34.8-20.4-10.3-6.1-21-12.3-31.9-18.5-10.9-6.2-21.7-12.5-32.4-18.9-1.4-.6-2.6-1.2-3.5-1.8-1-.6-1.9-.7-2.8-.5-1.4.6-2.8 1.4-4.3 2.4s-2.9 1.9-4.3 2.8c-10.1 5.7-20.3 11.6-30.6 17.5S9.8 153.6 0 159.3v81c11.9 6.6 23.6 13.3 35.2 20.1 11.6 6.8 23.2 13.5 34.8 20.1 11.9-6.6 23.6-13.3 35.2-19.9 11.6-6.6 23.2-13.4 34.8-20.3l-20.7-12.1c-8.4 4.9-16.7 9.6-24.7 14.4-8 4.7-16.3 9.5-24.7 14.4-8-4.9-16.2-9.6-24.4-14.4-8.2-4.7-16.6-9.5-25-14.4v-56.8c8.4-4.8 16.7-9.7 25-14.5 8.2-4.8 16.6-9.6 25-14.2 4.6 2.6 9.3 5.1 14.1 7.8 4.8 2.6 9.5 5.4 14.1 8.3-8 4.9-16.2 9.6-24.4 14.4-8.2 4.7-16.4 9.5-24.4 14.4z"/>
        <path d="M506.9 158.9c-10.3-6.1-21-12.3-31.9-18.5s-21.7-12.5-32.4-18.9c-1.4-.6-2.6-1.2-3.5-1.8-1-.6-1.9-.7-2.8-.5-1.4.6-2.8 1.4-4.3 2.4s-2.9 1.9-4.3 2.8c-10.1 5.7-20.3 11.6-30.6 17.5s-20.4 11.8-30.2 17.5v81c11.9 6.6 23.6 13.3 35.2 20.1 11.6 6.8 23.2 13.5 34.8 20.1 11.9-6.6 23.6-13.3 35.2-19.9 11.6-6.6 2.4-1.2 14-8.1l-20.7-12.1c-8.4 4.9 4.2-2.6-3.9 2.2-8 4.7-16.3 9.5-24.7 14.4-8-4.9-16.2-9.6-24.4-14.4-8.2-4.7-16.6-9.5-25-14.4v-56.8c8.4-4.8 16.7-9.7 25-14.5 8.2-4.8 16.6-9.6 25-14.2 4.6 2.6 9.3 5.1 14.1 7.8 4.8 2.6 14.1 8.3 14.1 8.3s17.3 9.7 20.7 11.9v109.3L507 268V159.3c-.1-.1-.3-.2-.4-.3.1 0 .2-.1.3-.1z"/>
        <path d="M157.1 0v242.9l20.7-12.1V12.1c-3.4-2.3-6.9-4.4-10.3-6.2C164 4 160.5 2 157.1 0z"/>
        <path d="M200.7 0v242.9l20.7-12.1V12.1c-3.4-2.3-6.9-4.4-10.3-6.2C207.6 4 204.2 2 200.7 0z"/>
        <path d="M244.1 240.4l21-12.2V171c-3.5-2.3-17.5-10.2-21-12.2v81.6z"/>
        <path d="M288.1 209.4h43.3l13.9-21h-57.2z"/>
        <path d="M244.1 148.4l21 12.2v-32.5c-3.5 2.1-17.5 9.9-21 12.2v8.1z"/>
        <path d="M530.3 240.4l21-12.2V171c-3.5-2.3-17.5-10.2-21-12.2v81.6z"/>
        <path d="M530.3 140.4v8.1l21 12.2v-32.5c-3.5 2-17.5 9.9-21 12.2z"/>
    </g>
</symbol><symbol id="icon-next" viewBox="0 0 408 408">
    <path d="M204 0l-35.7 35.7 142.8 142.8H0v51h311.1L168.3 372.3 204 408l204-204z"/>
</symbol><symbol id="icon-up" viewBox="0 0 408 408">
    <path d="M0 204l35.7 35.7L178.5 96.9V408h51V96.9l142.8 142.8L408 204 204 0z"/>
</symbol></svg>