<?xml version="1.0" encoding="UTF-8"?><!DOCTYPE svg PUBLIC "-//W3C//DTD SVG 1.1//EN" "http://www.w3.org/Graphics/SVG/1.1/DTD/svg11.dtd"><svg xmlns="http://www.w3.org/2000/svg"><symbol id="icon-all" viewBox="0 0 56 56">
    <path d="M8 40c-4.411 0-8 3.589-8 8s3.589 8 8 8 8-3.589 8-8-3.589-8-8-8zm0 14c-3.309 0-6-2.691-6-6s2.691-6 6-6 6 2.691 6 6-2.691 6-6 6z"/>
    <path d="M28 40c-4.411 0-8 3.589-8 8s3.589 8 8 8 8-3.589 8-8-3.589-8-8-8zm0 14c-3.309 0-6-2.691-6-6s2.691-6 6-6 6 2.691 6 6-2.691 6-6 6z"/>
    <path d="M48 40c-4.411 0-8 3.589-8 8s3.589 8 8 8 8-3.589 8-8-3.589-8-8-8zm0 14c-3.309 0-6-2.691-6-6s2.691-6 6-6 6 2.691 6 6-2.691 6-6 6z"/>
    <path d="M8 20c-4.411 0-8 3.589-8 8s3.589 8 8 8 8-3.589 8-8-3.589-8-8-8zm0 14c-3.309 0-6-2.691-6-6s2.691-6 6-6 6 2.691 6 6-2.691 6-6 6z"/>
    <path d="M28 20c-4.411 0-8 3.589-8 8s3.589 8 8 8 8-3.589 8-8-3.589-8-8-8zm0 14c-3.309 0-6-2.691-6-6s2.691-6 6-6 6 2.691 6 6-2.691 6-6 6z"/>
    <path d="M48 20c-4.411 0-8 3.589-8 8s3.589 8 8 8 8-3.589 8-8-3.589-8-8-8zm0 14c-3.309 0-6-2.691-6-6s2.691-6 6-6 6 2.691 6 6-2.691 6-6 6z"/>
    <path d="M8 0C3.589 0 0 3.589 0 8s3.589 8 8 8 8-3.589 8-8-3.589-8-8-8zm0 14c-3.309 0-6-2.691-6-6s2.691-6 6-6 6 2.691 6 6-2.691 6-6 6z"/>
    <path d="M28 0c-4.411 0-8 3.589-8 8s3.589 8 8 8 8-3.589 8-8-3.589-8-8-8zm0 14c-3.309 0-6-2.691-6-6s2.691-6 6-6 6 2.691 6 6-2.691 6-6 6z"/>
    <path d="M48 16c4.411 0 8-3.589 8-8s-3.589-8-8-8-8 3.589-8 8 3.589 8 8 8zm0-14c3.309 0 6 2.691 6 6s-2.691 6-6 6-6-2.691-6-6 2.691-6 6-6z"/>
</symbol><symbol id="icon-business" viewBox="0 0 480 480">
    <path d="M472 76h-88V12a8 8 0 0 0-8-8H104a8 8 0 0 0-8 8v112H8a8 8 0 0 0-8 8v328a8 8 0 0 0 16 0V140h80v328a8 8 0 0 0 8 8h272a8 8 0 0 0 8-8V92h80v368a8 8 0 0 0 16 0V84a8 8 0 0 0-8-8zM232 460h-32v-72h32v72zm48 0h-32v-72h32v72zm88 0h-72v-80a8 8 0 0 0-8-8h-96a8 8 0 0 0-8 8v80h-72V20h256v440z"/>
    <path d="M184 36h-48a8 8 0 0 0-8 8v48a8 8 0 0 0 8 8h48a8 8 0 0 0 8-8V44a8 8 0 0 0-8-8zm-8 48h-32V52h32v32z"/>
    <path d="M264 36h-48a8 8 0 0 0-8 8v48a8 8 0 0 0 8 8h48a8 8 0 0 0 8-8V44a8 8 0 0 0-8-8zm-8 48h-32V52h32v32z"/>
    <path d="M344 36h-48a8 8 0 0 0-8 8v48a8 8 0 0 0 8 8h48a8 8 0 0 0 8-8V44a8 8 0 0 0-8-8zm-8 48h-32V52h32v32z"/>
    <path d="M184 116h-48a8 8 0 0 0-8 8v48a8 8 0 0 0 8 8h48a8 8 0 0 0 8-8v-48a8 8 0 0 0-8-8zm-8 48h-32v-32h32v32z"/>
    <path d="M264 116h-48a8 8 0 0 0-8 8v48a8 8 0 0 0 8 8h48a8 8 0 0 0 8-8v-48a8 8 0 0 0-8-8zm-8 48h-32v-32h32v32z"/>
    <path d="M344 116h-48a8 8 0 0 0-8 8v48a8 8 0 0 0 8 8h48a8 8 0 0 0 8-8v-48a8 8 0 0 0-8-8zm-8 48h-32v-32h32v32z"/>
    <path d="M184 196h-48a8 8 0 0 0-8 8v48a8 8 0 0 0 8 8h48a8 8 0 0 0 8-8v-48a8 8 0 0 0-8-8zm-8 48h-32v-32h32v32z"/>
    <path d="M264 196h-48a8 8 0 0 0-8 8v48a8 8 0 0 0 8 8h48a8 8 0 0 0 8-8v-48a8 8 0 0 0-8-8zm-8 48h-32v-32h32v32z"/>
    <path d="M344 196h-48a8 8 0 0 0-8 8v48a8 8 0 0 0 8 8h48a8 8 0 0 0 8-8v-48a8 8 0 0 0-8-8zm-8 48h-32v-32h32v32z"/>
    <path d="M184 276h-48a8 8 0 0 0-8 8v48a8 8 0 0 0 8 8h48a8 8 0 0 0 8-8v-48a8 8 0 0 0-8-8zm-8 48h-32v-32h32v32z"/>
    <path d="M264 276h-48a8 8 0 0 0-8 8v48a8 8 0 0 0 8 8h48a8 8 0 0 0 8-8v-48a8 8 0 0 0-8-8zm-8 48h-32v-32h32v32z"/>
    <path d="M344 276h-48a8 8 0 0 0-8 8v48a8 8 0 0 0 8 8h48a8 8 0 0 0 8-8v-48a8 8 0 0 0-8-8zm-8 48h-32v-32h32v32z"/>
    <path d="M48 156h-8a8 8 0 0 0-8 8v8a8 8 0 0 0 8 8h8a8 8 0 0 0 8-8v-8a8 8 0 0 0-8-8z"/>
    <path d="M80 156h-8a8 8 0 0 0-8 8v8a8 8 0 0 0 8 8h8a8 8 0 0 0 8-8v-8a8 8 0 0 0-8-8z"/>
    <path d="M48 188h-8a8 8 0 0 0-8 8v8a8 8 0 0 0 8 8h8a8 8 0 0 0 8-8v-8a8 8 0 0 0-8-8z"/>
    <path d="M80 188h-8a8 8 0 0 0-8 8v8a8 8 0 0 0 8 8h8a8 8 0 0 0 8-8v-8a8 8 0 0 0-8-8z"/>
    <path d="M48 220h-8a8 8 0 0 0-8 8v8a8 8 0 0 0 8 8h8a8 8 0 0 0 8-8v-8a8 8 0 0 0-8-8z"/>
    <path d="M80 220h-8a8 8 0 0 0-8 8v8a8 8 0 0 0 8 8h8a8 8 0 0 0 8-8v-8a8 8 0 0 0-8-8z"/>
    <path d="M48 252h-8a8 8 0 0 0-8 8v8a8 8 0 0 0 8 8h8a8 8 0 0 0 8-8v-8a8 8 0 0 0-8-8z"/>
    <path d="M80 252h-8a8 8 0 0 0-8 8v8a8 8 0 0 0 8 8h8a8 8 0 0 0 8-8v-8a8 8 0 0 0-8-8z"/>
    <path d="M48 284h-8a8 8 0 0 0-8 8v8a8 8 0 0 0 8 8h8a8 8 0 0 0 8-8v-8a8 8 0 0 0-8-8z"/>
    <path d="M80 284h-8a8 8 0 0 0-8 8v8a8 8 0 0 0 8 8h8a8 8 0 0 0 8-8v-8a8 8 0 0 0-8-8z"/>
    <path d="M48 316h-8a8 8 0 0 0-8 8v8a8 8 0 0 0 8 8h8a8 8 0 0 0 8-8v-8a8 8 0 0 0-8-8z"/>
    <path d="M80 316h-8a8 8 0 0 0-8 8v8a8 8 0 0 0 8 8h8a8 8 0 0 0 8-8v-8a8 8 0 0 0-8-8z"/>
    <path d="M48 348h-8a8 8 0 0 0-8 8v8a8 8 0 0 0 8 8h8a8 8 0 0 0 8-8v-8a8 8 0 0 0-8-8z"/>
    <path d="M80 348h-8a8 8 0 0 0-8 8v8a8 8 0 0 0 8 8h8a8 8 0 0 0 8-8v-8a8 8 0 0 0-8-8z"/>
    <path d="M48 380h-8a8 8 0 0 0-8 8v8a8 8 0 0 0 8 8h8a8 8 0 0 0 8-8v-8a8 8 0 0 0-8-8z"/>
    <path d="M80 380h-8a8 8 0 0 0-8 8v8a8 8 0 0 0 8 8h8a8 8 0 0 0 8-8v-8a8 8 0 0 0-8-8z"/>
    <path d="M48 412h-8a8 8 0 0 0-8 8v8a8 8 0 0 0 8 8h8a8 8 0 0 0 8-8v-8a8 8 0 0 0-8-8z"/>
    <path d="M80 412h-8a8 8 0 0 0-8 8v8a8 8 0 0 0 8 8h8a8 8 0 0 0 8-8v-8a8 8 0 0 0-8-8z"/>
    <path d="M440 108h-32a8 8 0 0 0-8 8v32a8 8 0 0 0 8 8h32a8 8 0 0 0 8-8v-32a8 8 0 0 0-8-8zm-8 32h-16v-16h16v16z"/>
    <path d="M440 172h-32a8 8 0 0 0-8 8v32a8 8 0 0 0 8 8h32a8 8 0 0 0 8-8v-32a8 8 0 0 0-8-8zm-8 32h-16v-16h16v16z"/>
    <path d="M440 236h-32a8 8 0 0 0-8 8v32a8 8 0 0 0 8 8h32a8 8 0 0 0 8-8v-32a8 8 0 0 0-8-8zm-8 32h-16v-16h16v16z"/>
    <path d="M440 300h-32a8 8 0 0 0-8 8v32a8 8 0 0 0 8 8h32a8 8 0 0 0 8-8v-32a8 8 0 0 0-8-8zm-8 32h-16v-16h16v16z"/>
    <path d="M440 364h-32a8 8 0 0 0-8 8v32a8 8 0 0 0 8 8h32a8 8 0 0 0 8-8v-32a8 8 0 0 0-8-8zm-8 32h-16v-16h16v16z"/>
</symbol><symbol id="icon-checked" viewBox="0 0 26 20">
    <path d="M.3 11c-.2-.2-.3-.5-.3-.7s.1-.5.3-.7l1.4-1.4c.4-.4 1-.4 1.4 0l.1.1 5.5 5.9c.2.2.5.2.7 0L22.8.3h.1c.4-.4 1-.4 1.4 0l1.4 1.4c.4.4.4 1 0 1.4l-16 16.6c-.2.2-.4.3-.7.3s-.5-.1-.7-.3L.5 11.3.3 11z"/>
</symbol><symbol id="icon-cloud" viewBox="0 0 512 512">
    <path d="M387.291 98.537l-.088-.129c-3.112-4.563-9.333-5.739-13.896-2.629-4.563 3.111-5.74 9.333-2.629 13.896l.065.096 8.285-5.601-8.262 5.634a9.99 9.99 0 0 0 8.271 4.367c1.94 0 3.901-.563 5.625-1.738 4.563-3.111 5.74-9.333 2.629-13.896z"/>
    <path d="M474.403 207.037c.286-2.601.43-5.209.43-7.808 0-39.659-32.283-71.925-71.963-71.925-2.461 0-5.031.14-7.639.415-5.493.579-9.475 5.501-8.896 10.993.579 5.492 5.504 9.464 10.994 8.896a52.314 52.314 0 0 1 5.542-.305c28.653 0 51.963 23.293 51.963 51.925 0 3.805-.43 7.649-1.279 11.426a10.002 10.002 0 0 0 6 11.46c19.71 7.991 32.446 26.881 32.446 48.123 0 28.631-23.311 51.924-51.963 51.924h-14.082V261H433c5.523 0 10-4.478 10-10s-4.477-10-10-10H78.909c-5.523 0-10 4.478-10 10s4.477 10 10 10h7.046v60.442C48.441 316.331 20 284.365 20 245.748c0-42.135 34.304-76.414 76.469-76.414 1.327 0 2.785.047 4.458.143a9.995 9.995 0 0 0 10.368-7.965C124.967 95.159 184.142 47 252 47l.468.001c35.953.114 70.317 13.574 96.762 37.9 4.064 3.739 10.39 3.474 14.13-.589 3.739-4.065 3.475-10.392-.59-14.13C332.64 42.466 293.49 27.13 252.558 27H252c-37.892 0-74.836 13.25-104.028 37.31-26.64 21.957-45.738 51.924-54.378 85.066C41.725 150.9 0 193.546 0 245.748c0 49.658 37.274 90.605 85.955 95.843V475c0 5.522 4.477 10 10 10H151c5.523 0 10-4.478 10-10s-4.477-10-10-10h-45.045V261h300v204H229c-5.523 0-10 4.478-10 10s4.477 10 10 10h186.955c5.523 0 10-4.478 10-10V342.162h14.082c39.681 0 71.963-32.265 71.963-71.924 0-26.698-14.52-50.713-37.597-63.201z"/>
    <path d="M197.4 467.93a10.054 10.054 0 0 0-7.07-2.93c-2.63 0-5.21 1.069-7.07 2.93-1.86 1.861-2.93 4.44-2.93 7.07s1.07 5.21 2.93 7.069a10.077 10.077 0 0 0 7.07 2.931c2.64 0 5.21-1.07 7.07-2.931 1.87-1.859 2.93-4.439 2.93-7.069s-1.06-5.21-2.93-7.07z"/>
    <path d="M352.673 316.021h-65.642c-5.523 0-10 4.478-10 10s4.477 10 10 10h65.642c5.523 0 10-4.478 10-10s-4.477-10-10-10z"/>
    <path d="M352.673 404.002h-.003l-65.642.019c-5.523.002-9.999 4.479-9.997 10.003.002 5.522 4.478 9.997 10 9.997h.003l65.642-.019c5.523-.002 9.999-4.479 9.997-10.003-.001-5.522-4.478-9.997-10-9.997z"/>
    <path d="M352.673 360.013h-65.642c-5.523 0-10 4.478-10 10s4.477 10 10 10h65.642c5.523 0 10-4.478 10-10s-4.477-10-10-10z"/>
    <path d="M239 316.021h-88c-5.523 0-10 4.478-10 10v88c0 5.522 4.477 10 10 10h88c5.523 0 10-4.478 10-10v-88c0-5.522-4.477-10-10-10zm-10 88h-68v-68h68v68z"/>
    <path d="M176 153c-16.542 0-30 13.458-30 30s13.458 30 30 30 30-13.458 30-30-13.458-30-30-30zm0 40c-5.514 0-10-4.486-10-10s4.486-10 10-10 10 4.486 10 10-4.486 10-10 10z"/>
    <path d="M256 153c-16.542 0-30 13.458-30 30s13.458 30 30 30 30-13.458 30-30-13.458-30-30-30zm0 40c-5.514 0-10-4.486-10-10s4.486-10 10-10 10 4.486 10 10-4.486 10-10 10z"/>
    <path d="M336 153c-16.542 0-30 13.458-30 30s13.458 30 30 30 30-13.458 30-30-13.458-30-30-30zm0 40c-5.514 0-10-4.486-10-10s4.486-10 10-10 10 4.486 10 10-4.486 10-10 10z"/>
</symbol><symbol id="icon-down" viewBox="0 0 408 408">
    <path d="M204 408l204-204-35.7-35.7-142.8 142.8V0h-51v311.1L35.7 168.3 0 204z"/>
</symbol><symbol id="icon-industries" viewBox="0 0 512 512">
    <g>
        <path d="M262.785 317.207a8.084 8.084 0 0 0-10.769-3.837 128.725 128.725 0 0 1-20.448 7.648 8.08 8.08 0 0 0-5.748 6.2l-8.552 42.758a9.088 9.088 0 0 1-8.888 7.287h-23.329a9.088 9.088 0 0 1-8.888-7.287l-8.552-42.758a8.084 8.084 0 0 0-5.748-6.2 128.448 128.448 0 0 1-28.391-11.764 8.086 8.086 0 0 0-8.452.317l-36.286 24.19c-3.582 2.388-8.392 1.911-11.438-1.133L60.8 316.131c-3.045-3.045-3.52-7.855-1.133-11.438l24.19-36.286a8.081 8.081 0 0 0 .317-8.452 128.411 128.411 0 0 1-11.764-28.391 8.08 8.08 0 0 0-6.2-5.748l-42.758-8.552a9.088 9.088 0 0 1-7.287-8.888v-23.329a9.088 9.088 0 0 1 7.287-8.888l42.758-8.552a8.084 8.084 0 0 0 6.2-5.748 128.448 128.448 0 0 1 11.764-28.391 8.086 8.086 0 0 0-.317-8.452L59.669 88.734a9.09 9.09 0 0 1 1.133-11.438L77.298 60.8c3.045-3.045 7.856-3.52 11.438-1.133l36.286 24.19a8.083 8.083 0 0 0 8.452.317 128.448 128.448 0 0 1 28.391-11.764 8.08 8.08 0 0 0 5.748-6.2l8.552-42.758a9.088 9.088 0 0 1 8.888-7.287h23.329a9.088 9.088 0 0 1 8.888 7.287l8.552 42.758a8.084 8.084 0 0 0 5.748 6.2 128.448 128.448 0 0 1 28.391 11.764 8.086 8.086 0 0 0 8.452-.317l36.286-24.19c3.582-2.388 8.391-1.911 11.438 1.133l16.496 16.496c3.045 3.045 3.52 7.855 1.133 11.438l-24.19 36.286a8.081 8.081 0 0 0-.317 8.452 128.448 128.448 0 0 1 11.764 28.391 8.08 8.08 0 0 0 6.2 5.748l42.758 8.552a9.088 9.088 0 0 1 7.287 8.888v23.329a9.088 9.088 0 0 1-7.287 8.888l-42.758 8.552a8.084 8.084 0 0 0-6.2 5.75 128.672 128.672 0 0 1-7.88 20.934 8.083 8.083 0 0 0 3.791 10.785 8.082 8.082 0 0 0 10.785-3.791 144.997 144.997 0 0 0 7.442-18.777l37.991-7.598c11.749-2.352 20.279-12.758 20.279-24.744V185.05c0-11.986-8.53-22.391-20.284-24.743l-37.99-7.598a144.66 144.66 0 0 0-9.434-22.769l21.492-32.239c6.648-9.973 5.323-23.363-3.153-31.839l-16.496-16.496c-8.477-8.476-21.867-9.8-31.839-3.153l-32.239 21.492a144.755 144.755 0 0 0-22.769-9.434l-7.598-37.99C230.772 8.53 220.366 0 208.38 0h-23.329c-11.986 0-22.391 8.53-24.743 20.284l-7.598 37.99a144.66 144.66 0 0 0-22.769 9.434L97.704 46.216c-9.972-6.648-23.363-5.324-31.839 3.153L49.369 65.865c-8.475 8.476-9.801 21.865-3.153 31.839l21.492 32.239a144.716 144.716 0 0 0-9.434 22.769l-37.991 7.598C8.53 162.66 0 173.066 0 185.052v23.329c0 11.986 8.53 22.391 20.284 24.743l37.99 7.598a144.644 144.644 0 0 0 9.434 22.769L46.216 295.73c-6.648 9.973-5.323 23.363 3.153 31.839l16.496 16.496c8.476 8.476 21.866 9.8 31.839 3.153l32.239-21.492a144.716 144.716 0 0 0 22.769 9.434l7.598 37.992c2.35 11.75 12.756 20.281 24.742 20.281h23.329c11.986 0 22.391-8.53 24.743-20.284l7.598-37.99a144.831 144.831 0 0 0 18.228-7.18 8.085 8.085 0 0 0 3.835-10.772z"/>
        <path d="M266.739 241.636a8.083 8.083 0 0 0 10.882-3.504c6.52-12.715 9.967-27.036 9.967-41.415 0-50.107-40.765-90.873-90.873-90.873-23.838 0-46.364 9.162-63.43 25.801a8.084 8.084 0 0 0 11.285 11.577c14.029-13.676 32.547-21.209 52.143-21.209 41.192 0 74.705 33.512 74.705 74.705 0 11.994-2.754 23.446-8.185 34.038a8.084 8.084 0 0 0 3.506 10.88z"/>
        <path d="M121.043 162.125a8.083 8.083 0 0 0-10.274 5.014 90.728 90.728 0 0 0-4.924 29.577c0 50.108 40.766 90.873 90.873 90.873 19.271 0 37.683-5.956 53.247-17.227a8.086 8.086 0 0 0-9.483-13.097c-12.788 9.259-27.921 14.154-43.765 14.154-41.193 0-74.705-33.513-74.705-74.705 0-8.334 1.36-16.517 4.044-24.318a8.08 8.08 0 0 0-5.013-10.271z"/>
        <path d="M496.442 353.316l-23.377-4.675a97.791 97.791 0 0 0-5.127-12.373l13.226-19.838c5.099-7.65 4.083-17.92-2.418-24.42l-10.84-10.84c-6.501-6.5-16.771-7.517-24.42-2.418l-19.838 13.226a97.639 97.639 0 0 0-12.373-5.126l-4.675-23.377c-1.803-9.015-9.784-15.558-18.977-15.558h-15.331c-9.192 0-17.174 6.543-18.977 15.558l-4.675 23.377a97.933 97.933 0 0 0-12.373 5.126l-19.838-13.226c-7.65-5.098-17.92-4.083-24.42 2.418l-10.84 10.84c-6.501 6.501-7.517 16.771-2.418 24.42l13.226 19.838a97.706 97.706 0 0 0-6.605 17.177 8.086 8.086 0 0 0 15.571 4.357 81.578 81.578 0 0 1 7.476-18.043 8.086 8.086 0 0 0-.317-8.452l-15.897-23.845a3.194 3.194 0 0 1 .398-4.019l10.84-10.84a3.198 3.198 0 0 1 4.019-.398l23.845 15.897a8.083 8.083 0 0 0 8.452.317 81.598 81.598 0 0 1 18.043-7.476 8.08 8.08 0 0 0 5.748-6.2l5.619-28.097a3.193 3.193 0 0 1 3.123-2.56h15.331a3.195 3.195 0 0 1 3.123 2.56l5.619 28.099a8.084 8.084 0 0 0 5.748 6.2 81.578 81.578 0 0 1 18.043 7.476 8.086 8.086 0 0 0 8.452-.317l23.845-15.897a3.193 3.193 0 0 1 4.019.398l10.84 10.84a3.196 3.196 0 0 1 .398 4.019l-15.897 23.845a8.081 8.081 0 0 0-.317 8.452 81.598 81.598 0 0 1 7.476 18.043 8.08 8.08 0 0 0 6.2 5.748l28.097 5.619a3.193 3.193 0 0 1 2.56 3.123v15.331a3.195 3.195 0 0 1-2.56 3.123l-28.099 5.619a8.084 8.084 0 0 0-6.2 5.748 81.578 81.578 0 0 1-7.476 18.043 8.086 8.086 0 0 0 .317 8.452l15.897 23.845a3.194 3.194 0 0 1-.398 4.019l-10.84 10.84a3.195 3.195 0 0 1-4.019.398l-23.845-15.897a8.086 8.086 0 0 0-8.452-.317 81.598 81.598 0 0 1-18.043 7.476 8.08 8.08 0 0 0-5.748 6.2l-5.619 28.097a3.193 3.193 0 0 1-3.123 2.56H372.29a3.195 3.195 0 0 1-3.123-2.56l-5.619-28.099a8.084 8.084 0 0 0-5.748-6.2 81.578 81.578 0 0 1-18.043-7.476 8.085 8.085 0 0 0-8.452.317L307.46 467.71a3.193 3.193 0 0 1-4.019-.398l-10.84-10.84a3.196 3.196 0 0 1-.398-4.019l15.897-23.845a8.081 8.081 0 0 0 .317-8.452 81.598 81.598 0 0 1-7.476-18.043 8.08 8.08 0 0 0-6.2-5.748l-28.097-5.619a3.193 3.193 0 0 1-2.56-3.123v-15.331a3.195 3.195 0 0 1 2.56-3.123l1.72-.344a8.083 8.083 0 0 0 6.341-9.513c-.876-4.378-5.13-7.213-9.514-6.341l-1.72.344c-9.013 1.804-15.556 9.785-15.556 18.978v15.331c0 9.192 6.543 17.174 15.558 18.977l23.377 4.675a97.933 97.933 0 0 0 5.126 12.373l-13.226 19.838c-5.1 7.65-4.083 17.92 2.418 24.42l10.84 10.84c6.501 6.501 16.771 7.517 24.42 2.418l19.838-13.226a97.639 97.639 0 0 0 12.373 5.126l4.675 23.377C355.119 505.457 363.1 512 372.293 512h15.331c9.192 0 17.174-6.543 18.977-15.558l4.675-23.377a97.791 97.791 0 0 0 12.373-5.127l19.838 13.226c7.65 5.099 17.92 4.083 24.42-2.418l10.84-10.84c6.501-6.501 7.517-16.771 2.418-24.42l-13.226-19.838a97.639 97.639 0 0 0 5.126-12.373l23.377-4.675c9.014-1.803 15.557-9.784 15.557-18.977v-15.331c.001-9.192-6.542-17.173-15.557-18.976z"/>
        <path d="M379.958 350.855c16.048 0 29.103 13.055 29.103 29.103a8.084 8.084 0 0 0 16.168 0c0-24.963-20.309-45.272-45.272-45.272s-45.272 20.309-45.272 45.272 20.309 45.272 45.272 45.272c10.111 0 19.675-3.261 27.659-9.429a8.086 8.086 0 0 0-9.886-12.796c-5.128 3.961-11.274 6.056-17.773 6.056-16.048 0-29.103-13.055-29.103-29.103.001-16.049 13.056-29.103 29.104-29.103z"/>
        <path d="M245.969 196.716c0-27.158-22.096-49.253-49.253-49.253-27.158 0-49.253 22.096-49.253 49.253 0 27.158 22.095 49.253 49.253 49.253s49.253-22.096 49.253-49.253zm-82.338 0c0-18.242 14.843-33.085 33.085-33.085s33.085 14.843 33.085 33.085-14.842 33.085-33.085 33.085c-18.244 0-33.085-14.843-33.085-33.085z"/>
    </g>
</symbol><symbol id="icon-logo-full" viewBox="0 0 551.3 280.6">
    <g>
        <path d="M49.9 187.6c3.4 2 6.9 4.1 10.2 6 3.4 2 6.7 4 9.9 6 11.9-6.9 23.6-13.7 35.2-20.4 11.6-6.7 23.2-13.5 34.8-20.4-10.3-6.1-21-12.3-31.9-18.5-10.9-6.2-21.7-12.5-32.4-18.9-1.4-.6-2.6-1.2-3.5-1.8-1-.6-1.9-.7-2.8-.5-1.4.6-2.8 1.4-4.3 2.4s-2.9 1.9-4.3 2.8c-10.1 5.7-20.3 11.6-30.6 17.5S9.8 153.6 0 159.3v81c11.9 6.6 23.6 13.3 35.2 20.1 11.6 6.8 23.2 13.5 34.8 20.1 11.9-6.6 23.6-13.3 35.2-19.9 11.6-6.6 23.2-13.4 34.8-20.3l-20.7-12.1c-8.4 4.9-16.7 9.6-24.7 14.4-8 4.7-16.3 9.5-24.7 14.4-8-4.9-16.2-9.6-24.4-14.4-8.2-4.7-16.6-9.5-25-14.4v-56.8c8.4-4.8 16.7-9.7 25-14.5 8.2-4.8 16.6-9.6 25-14.2 4.6 2.6 9.3 5.1 14.1 7.8 4.8 2.6 9.5 5.4 14.1 8.3-8 4.9-16.2 9.6-24.4 14.4-8.2 4.7-16.4 9.5-24.4 14.4z"/>
        <path d="M506.9 158.9c-10.3-6.1-21-12.3-31.9-18.5s-21.7-12.5-32.4-18.9c-1.4-.6-2.6-1.2-3.5-1.8-1-.6-1.9-.7-2.8-.5-1.4.6-2.8 1.4-4.3 2.4s-2.9 1.9-4.3 2.8c-10.1 5.7-20.3 11.6-30.6 17.5s-20.4 11.8-30.2 17.5v81c11.9 6.6 23.6 13.3 35.2 20.1 11.6 6.8 23.2 13.5 34.8 20.1 11.9-6.6 23.6-13.3 35.2-19.9 11.6-6.6 2.4-1.2 14-8.1l-20.7-12.1c-8.4 4.9 4.2-2.6-3.9 2.2-8 4.7-16.3 9.5-24.7 14.4-8-4.9-16.2-9.6-24.4-14.4-8.2-4.7-16.6-9.5-25-14.4v-56.8c8.4-4.8 16.7-9.7 25-14.5 8.2-4.8 16.6-9.6 25-14.2 4.6 2.6 9.3 5.1 14.1 7.8 4.8 2.6 14.1 8.3 14.1 8.3s17.3 9.7 20.7 11.9v109.3L507 268V159.3c-.1-.1-.3-.2-.4-.3.1 0 .2-.1.3-.1z"/>
        <path d="M157.1 0v242.9l20.7-12.1V12.1c-3.4-2.3-6.9-4.4-10.3-6.2C164 4 160.5 2 157.1 0z"/>
        <path d="M200.7 0v242.9l20.7-12.1V12.1c-3.4-2.3-6.9-4.4-10.3-6.2C207.6 4 204.2 2 200.7 0z"/>
        <path d="M244.1 240.4l21-12.2V171c-3.5-2.3-17.5-10.2-21-12.2v81.6z"/>
        <path d="M288.1 209.4h43.3l13.9-21h-57.2z"/>
        <path d="M244.1 148.4l21 12.2v-32.5c-3.5 2.1-17.5 9.9-21 12.2v8.1z"/>
        <path d="M530.3 240.4l21-12.2V171c-3.5-2.3-17.5-10.2-21-12.2v81.6z"/>
        <path d="M530.3 140.4v8.1l21 12.2v-32.5c-3.5 2-17.5 9.9-21 12.2z"/>
    </g>
</symbol><symbol id="icon-logo" viewBox="0 0 265.1 280.5">
    <g>
        <path d="M49.9 187.6c3.4 2 6.9 4.1 10.2 6 3.4 2 6.7 4 9.9 6 11.9-6.9 23.6-13.7 35.2-20.4s23.2-13.5 34.8-20.4c-10.3-6.1-21-12.3-31.9-18.5s-21.7-12.5-32.4-18.9c-1.4-.6-2.6-1.2-3.5-1.8-1-.6-1.9-.7-2.8-.5-1.4.6-2.8 1.4-4.3 2.4s-2.9 1.9-4.3 2.8c-10.1 5.7-20.3 11.6-30.6 17.5S9.8 153.6 0 159.3v81c11.9 6.6 23.6 13.3 35.2 20.1s23.2 13.5 34.8 20.1c11.9-6.6 23.6-13.3 35.2-19.9s23.2-13.4 34.8-20.3l-20.7-12.1c-8.4 4.9-16.7 9.6-24.7 14.4-8 4.7-16.3 9.5-24.7 14.4-8-4.9-16.2-9.6-24.4-14.4-8.2-4.7-16.6-9.5-25-14.4v-56.8c8.4-4.8 16.7-9.7 25-14.5 8.2-4.8 16.6-9.6 25-14.2 4.6 2.6 9.3 5.1 14.1 7.8 4.8 2.6 9.5 5.4 14.1 8.3-8 4.9-16.2 9.6-24.4 14.4-8.2 4.7-16.4 9.5-24.4 14.4z"/>
        <path d="M157.1 0v242.9l20.7-12.1V12.1c-3.4-2.3-6.9-4.4-10.3-6.2C164 4 160.5 2 157.1 0z"/>
        <path d="M200.7 0v242.9l20.7-12.1V12.1c-3.4-2.3-6.9-4.4-10.3-6.2C207.6 4 204.2 2 200.7 0z"/>
        <path d="M244.1 240.4l21-12.2V171c-3.5-2.3-17.5-10.2-21-12.2v81.6z"/>
        <path d="M244.1 148.4l21 12.2v-32.5c-3.5 2.1-17.5 9.9-21 12.2v8.1z"/>
    </g>
</symbol><symbol id="icon-multi-channel" viewBox="0 0 512.001 512.001">
    <path d="M437.997 364.004c-16.802 0-32.304 5.638-44.74 15.108l-72.646-72.646c9.176-11.766 14.898-25.752 16.728-40.341h43.247c4.281 13.882 17.229 24 32.496 24 18.748 0 33.999-15.252 33.999-33.999s-15.252-33.999-33.999-33.999c-15.268 0-28.216 10.118-32.496 23.999h-43.194a81.586 81.586 0 0 0-2.276-11.727c-1.45-5.33-6.948-8.475-12.275-7.023-5.329 1.45-8.473 6.946-7.023 12.275 5.833 21.437-.289 44.499-15.979 60.187-24.172 24.174-63.507 24.174-87.679 0-24.173-24.172-24.173-63.506 0-87.679 15.288-15.289 36.999-21.461 58.08-16.512 5.374 1.258 10.759-2.073 12.021-7.45 1.262-5.376-2.073-10.758-7.45-12.021-24.578-5.77-49.808-.094-69.294 15.198l-72.63-72.63c9.472-12.436 15.112-27.941 15.112-44.744-.001-40.805-33.197-74-74-74S.001 33.195.001 73.998s33.195 73.998 73.998 73.998c16.804 0 32.308-5.64 44.745-15.112l72.648 72.648c-23.109 29.543-23.109 71.383 0 100.928l-37.305 37.305c-3.905 3.905-3.905 10.237 0 14.143 1.953 1.953 4.512 2.929 7.071 2.929s5.119-.976 7.071-2.929l37.305-37.305c14.772 11.554 32.611 17.354 50.464 17.354s35.692-5.8 50.464-17.354l72.649 72.649c-9.475 12.437-15.116 27.943-15.116 44.749 0 40.803 33.195 73.998 73.998 73.998s73.998-33.195 73.998-73.998-33.191-73.997-73.994-73.997zm-24.915-121.879c7.72 0 14 6.28 14 14s-6.28 14-14 14-14-6.28-14-14 6.28-14 14-14zM74 127.998c-29.775 0-53.999-24.223-53.999-53.999S44.225 20.001 74 20.001c29.775 0 53.999 24.223 53.999 53.999S103.776 127.998 74 127.998zm363.997 364.003c-29.775 0-53.999-24.223-53.999-53.999 0-14.435 5.704-27.554 14.963-37.252.331-.257.655-.529.959-.833.304-.304.575-.627.832-.957 9.697-9.255 22.814-14.957 37.245-14.957 29.775 0 53.999 24.223 53.999 53.999s-24.224 53.999-53.999 53.999z"/>
    <path d="M80.004 373.995c-31.98 0-57.999 26.018-57.999 57.999s26.018 57.999 57.999 57.999c31.98 0 57.999-26.018 57.999-57.999s-26.018-57.999-57.999-57.999zm0 95.998c-20.953 0-37.999-17.047-37.999-37.999s17.047-37.999 37.999-37.999c20.953 0 37.999 17.047 37.999 37.999s-17.046 37.999-37.999 37.999z"/>
    <path d="M314.341 198.377l-.359-.362c-3.905-3.905-10.237-3.905-14.143 0-3.905 3.905-3.905 10.237 0 14.143l.259.261a9.968 9.968 0 0 0 7.122 2.979 9.97 9.97 0 0 0 7.021-2.879c3.933-3.877 3.978-10.209.1-14.142z"/>
    <path d="M145.573 366.425a10.066 10.066 0 0 0-7.07-2.92c-2.64 0-5.21 1.06-7.08 2.92a10.066 10.066 0 0 0-2.92 7.07c0 2.64 1.06 5.21 2.92 7.08a10.09 10.09 0 0 0 7.08 2.92c2.63 0 5.21-1.06 7.07-2.92a10.1 10.1 0 0 0 2.93-7.08c0-2.63-1.07-5.21-2.93-7.07z"/>
    <path d="M454.001.007c-31.98 0-57.999 26.018-57.999 57.999 0 12.384 3.914 23.863 10.552 33.295l-78.626 78.626c-3.905 3.905-3.905 10.237 0 14.143a9.966 9.966 0 0 0 7.071 2.929 9.966 9.966 0 0 0 7.071-2.929l78.625-78.625c9.433 6.643 20.918 10.56 33.306 10.56 31.98 0 57.999-26.018 57.999-57.999S485.982.007 454.001.007zm0 95.999c-20.953 0-37.999-17.047-37.999-37.999 0-20.953 17.047-37.999 37.999-37.999 20.953 0 37.999 17.047 37.999 37.999s-17.046 37.999-37.999 37.999z"/>
    <path d="M256.001 225.998c-16.542 0-29.999 13.458-29.999 29.999s13.458 29.999 29.999 29.999S286 272.539 286 255.998s-13.458-30-29.999-30zm0 39.999c-5.514 0-10-4.486-10-10s4.486-10 10-10 10 4.486 10 10-4.487 10-10 10z"/>
</symbol><symbol id="icon-next" viewBox="0 0 408 408">
    <path d="M204 0l-35.7 35.7 142.8 142.8H0v51h311.1L168.3 372.3 204 408l204-204z"/>
</symbol><symbol id="icon-robotic" viewBox="0 0 471.477 471.477">
    <path d="M190.024 105.178c-17.673 0-32 14.327-32 32s14.327 32 32 32c17.673 0 32-14.327 32-32s-14.327-32-32-32zm0 48c-8.837 0-16-7.163-16-16 .044-8.805 7.195-15.92 16-15.92v-.08c8.837 0 16 7.163 16 16s-7.163 16-16 16z"/>
    <path d="M281.544 105.178c-17.673 0-32 14.327-32 32s14.327 32 32 32c17.673 0 32-14.327 32-32s-14.327-32-32-32zm0 48c-8.837 0-16-7.163-16-16 .044-8.805 7.195-15.92 16-15.92v-.08c8.837 0 16 7.163 16 16s-7.163 16-16 16z"/>
    <path d="M379.097 142.007c-3.452-18.993-18.742-33.603-37.872-36.189-5.28-19.52-20.48-36.16-51.04-36.16h-46.4v-17.6c14.034-4.418 21.829-19.377 17.41-33.41-4.418-14.034-19.377-21.829-33.41-17.41-14.034 4.418-21.829 19.377-17.41 33.41a26.64 26.64 0 0 0 17.41 17.41v17.2h-46.32c-21.6 0-44.32 9.92-51.2 36.16-24.381 3.347-41.433 25.825-38.086 50.206 2.624 19.117 17.255 34.372 36.246 37.794l-.08.4c2.4 35.12 28.48 48 53.04 48h108.8c36.56 0 51.2-24 53.04-48 24.212-4.402 40.273-27.598 35.872-51.811zm-250.993 35.811c-15.11-4.368-23.819-20.158-19.452-35.268a28.48 28.48 0 0 1 19.452-19.452v54.72zm97.04-150.72c0-5.876 4.764-10.64 10.64-10.64s10.64 4.764 10.64 10.64-4.764 10.64-10.64 10.64-10.64-4.764-10.64-10.64zm102.32 160.96c0 13.92-4.88 37.28-37.28 37.28h-108.72c-13.92 0-37.28-4.88-37.28-37.28l-.08-64.96c0-32.48 23.36-37.28 37.28-37.28h108.8c32.48 0 37.28 23.36 37.28 37.28v64.96zm15.68-10.8v-54.72a28.56 28.56 0 0 1 20.64 27.36 28.56 28.56 0 0 1-20.64 27.36z"/>
    <path d="M281.544 190.938h-91.52a8 8 0 0 0 0 16h91.52a8 8 0 0 0 0-16z"/>
    <path d="M413.784 256.778c-.153-17.142-14.173-30.915-31.315-30.762-14.344.128-26.732 10.067-29.965 24.042l-21.36 4.16h-190.72l-21.36-4.16c-3.66-16.748-20.203-27.358-36.951-23.698s-27.358 20.203-23.698 36.951a31.041 31.041 0 0 0 22.409 23.388v59.76c-13.533 3.61-22.972 15.834-23.04 29.84v14.16a8 8 0 0 0 16 0v-14.24c0-8.306 6.734-15.04 15.04-15.04s15.04 6.734 15.04 15.04v14.24a8 8 0 0 0 16 0v-14.24c-.068-14.006-9.507-26.23-23.04-29.84v-59.76a30.962 30.962 0 0 0 21.44-20.48l13.36 2.64v98.72a103.445 103.445 0 0 0 8.96 42v.72c23.619 52.357 85.21 75.653 137.566 52.034a104.001 104.001 0 0 0 52.034-52.034l.4-.88a103.358 103.358 0 0 0 9.2-41.84v-98.72l13.36-2.64a30.962 30.962 0 0 0 21.44 20.48v59.76c-13.533 3.61-22.972 15.834-23.04 29.84v14.24a8 8 0 0 0 16 0v-14.24c.008-8.306 6.748-15.034 15.054-15.026 8.295.008 15.018 6.731 15.026 15.026v14.24a8 8 0 0 0 16 0v-14.24c-.068-14.006-9.507-26.23-23.04-29.84v-59.76c13.596-3.55 23.112-15.79 23.2-29.841zm-324.96 15.04c-8.306 0-15.04-6.734-15.04-15.04s6.734-15.04 15.04-15.04 15.04 6.734 15.04 15.04-6.734 15.04-15.04 15.04zm146.96 183.76a88 88 0 0 1-74.32-40.88h148.64a88.002 88.002 0 0 1-74.32 40.88zm88-88a87.985 87.985 0 0 1-5.84 31.2h-164.48a87.985 87.985 0 0 1-5.84-31.2v-97.36h176.16v97.36zm59.043-95.762l-.083.001-.16-.24c-8.306 0-15.04-6.734-15.04-15.04s6.734-15.04 15.04-15.04 15.04 6.734 15.04 15.04c.133 8.306-6.492 15.146-14.797 15.279z"/>
    <path d="M264.085 326.679a8.002 8.002 0 0 0-5.341-2.061h-24l29.44-30.24a8 8 0 0 0-11.44-11.12l-42.64 43.84a8 8 0 0 0 5.76 13.6h24.64l-30.32 33.76a8 8 0 0 0 .56 11.28 8 8 0 0 0 11.28-.56l42.64-47.2a8 8 0 0 0-.579-11.299z"/>
</symbol><symbol id="icon-up" viewBox="0 0 408 408">
    <path d="M0 204l35.7 35.7L178.5 96.9V408h51V96.9l142.8 142.8L408 204 204 0z"/>
</symbol></svg>